<?xml version="1.0" encoding="UTF-8"?><svg id="Layer_1" xmlns="http://www.w3.org/2000/svg" viewBox="0 0 100 100"><defs><style>.cls-1{fill:#4e8bf8;}.cls-2{fill:#fffcec;}.cls-3{fill:#f38e89;}.cls-4{fill:#f16367;}</style></defs><path class="cls-2" d="M57.32,69.52c-.37.87-2.4,3.3-2.25,2.37.26-1.61-1.06-2.85-1.86-3.35-1.42-.9-3.91-.96-5.57-.71s-3.87,1.17-4.37,2.77c-.31.99.38,2.4.32,3.62-.04.79-.66,1.56-.7,2.35-1.61.54-3.07,0-4.5-.91s-2.53-2.26-3.45-3.69c-3.07-4.74-4.48-10.54-3.92-16.17.32-3.23,1.3-6.43,3.12-9.11s4.54-4.81,7.68-5.63c4.59-1.2,9.66.59,13,3.96s5.05,8.12,5.37,12.85-.67,9.47-2.15,13.97c-.1-.21-.21-.42-.31-.62"/><path class="cls-2" d="M83.27,62.49c-11.37-2.95-22.04-13.18-17.26-25.65.8-2.19,1.56-3.14,2.43-5.68.39-.62,1.12-5.8-.37-3.58-1.98,5.06-6.19,6.61-10.53,9.03-2.91,1.2-6.2.74-9.18,1.61,12.51,3.04,10.79,2.58,14.39,14.69.67,3.02,1.03,6.1,1.09,9.19-.84,8.62-5.18,17.07,2.69,24.13,16.69,13.43,34.83-12.91,16.74-23.74Z"/><path class="cls-2" d="M76.2,96.76c-15.39.27-25.13-15.62-20.02-30.38,1.97-6.81-.49-13.12-2.52-19.58-5.25-1.05-22.65-7.3-28-9.19,4.12-.94,22.35-7.09,26.2-6.92,2.63.17,4.19-1.53,6.56-2.4,4.68-2.34,3.4-8.71,11.06-8.14,5.91.68,7.69,7.63,5.55,13.1-.99,3.2-2.39,4.75-3.05,7.77-1.58,7.9,6.76,12.32,13.97,15.1,21.02,8.1,12.15,40.84-9.77,40.64ZM70.68,64.3c-.84,6.05-3.99,13.16.4,16.71,8.75,6.91,17.72-6.12,9.5-12.14-3.3-.85-6.99-2.51-9.9-4.56ZM58.88,28.11h0s0,0,0,0Z"/><path class="cls-2" d="M51.07,9.76c10.19-1.04,20.94,9.33,18.07,19.81-1.5,5.48-6.73,9.73-12.41,10.07-3.06.18-6.08-.66-9.13-1.07-8.77-1.18-18.94,7.04-18.29,16.36.52,7.44,7.02,13.45,7.49,20.89.21,3.39-.92,6.84-3.1,9.44-5.06,6.02-13.33,5.87-19.13.99-5.43-4.56-7.34-12.63-4.4-19.13l28.9-50.2c2.68-3.95,7.23-6.67,11.99-7.15Z"/><path class="cls-2" d="M24.02,96.77c-4.96,0-9.88-1.84-13.9-5.22-7.81-6.56-10.44-18.04-6.25-27.29l.31-.6L33.2,13.24l.14-.21c3.85-5.66,10.21-9.46,17.02-10.15h0c7.49-.76,15.41,2.62,20.66,8.83,4.88,5.77,6.63,12.95,4.78,19.69-2.3,8.4-9.98,14.63-18.67,15.15-2.98.18-5.67-.3-8.05-.72-.8-.14-1.61-.29-2.42-.4-2.36-.32-5.33.83-7.58,2.94-1.97,1.84-3.01,4.06-2.87,6.08.16,2.27,1.53,4.9,2.98,7.69,1.96,3.77,4.18,8.05,4.51,13.25.32,5.15-1.39,10.37-4.71,14.32-3.67,4.38-8.78,6.88-14.38,7.05-.2,0-.41,0-.61,0ZM16.37,70.23c-1.49,3.61-.37,8.17,2.66,10.71,1.58,1.32,3.42,2.03,5.18,1.97,1.65-.05,3.06-.76,4.19-2.11,1.04-1.24,1.6-2.94,1.5-4.55-.14-2.28-1.52-4.92-2.98-7.73-1.49-2.87-3.14-6.04-3.99-9.68l-6.56,11.4ZM44.93,20.62l-7.19,12.49c3.51-1.38,7.23-1.89,10.79-1.41,1,.13,1.99.31,2.98.49,1.78.32,3.46.61,4.8.53,2.72-.16,5.42-2.35,6.15-4.99.85-3.11-.88-5.77-2-7.09-2.28-2.69-5.77-4.3-8.69-4-2.63.27-5.29,1.82-6.84,3.98Z"/><path class="cls-2" d="M30.38,42.44l-3.04,5.62"/><path class="cls-1" d="M63.49,57.14c.21,1.65.33,3.31.36,4.96.05,3.08-.94,5.56-1.57,8.55-1.18,5.61-.2,11.7,4.26,15.58,4.13,3.6,10.05,4.64,15.13,2.52,5.22-2.18,8.76-7.09,9.04-12.76.24-5.07-2.33-11.73-7.42-13.5-1.36-.47-2.88-.79-4.28-1.43-1.65-.75-3.24-1.66-4.74-2.69-3.7-2.56-7.2-5.63-8.47-10.03-.86-2.97-1.14-5.46-.61-8.51.13-.77.55-2.26.84-2.99.41-1.06.33-.82.68-1.63.45-1.05,1.23-2.41,1.75-4.06.22-.7.37-1.43.49-2.16.07-.43.12-.88.05-1.31-.15-.91-.57-.87-.91-.11-.25.57-.52,1.12-.84,1.66-.64,1.06-1.42,2.04-2.32,2.89-.79.75-1.66,1.42-2.6,1.98-.74.44-1.52.65-2.29,1.01-.88.42-1.57,1.12-2.49,1.49s-1.92.6-2.91.74c-2.09.3-4.24.27-6.27.86,2.8.98,6.47.68,9.07,2.23,2,1.19,2.47,3.11,3.1,5.17.75,2.44,1.66,4.79,2.21,7.3.31,1.4.55,2.81.73,4.23Z"/><path class="cls-4" d="M51.07,9.76c10.19-1.04,20.94,9.33,18.07,19.81-1.5,5.48-6.73,9.73-12.41,10.07-3.06.18-6.08-.66-9.13-1.07-8.77-1.18-18.94,7.04-18.29,16.36.52,7.44,7.02,13.45,7.49,20.89.21,3.39-.92,6.84-3.1,9.44-5.06,6.02-13.33,5.87-19.13.99-5.43-4.56-7.34-12.63-4.4-19.13l28.9-50.2c2.68-3.95,7.23-6.67,11.99-7.15Z"/><path class="cls-3" d="M45.96,46.78c-1.57,3.07-4.13,5.56-7.25,7.04-1.07.51-1.08,2.04-.03,2.58,2.94,1.5,5.34,3.9,6.85,6.84.54,1.06,2.04,1.06,2.58,0,1.57-3.07,4.13-5.56,7.25-7.04,1.07-.51,1.08-2.04.03-2.58-2.94-1.5-5.34-3.9-6.85-6.84-.54-1.06-2.04-1.06-2.58,0Z"/><path class="cls-2" d="M56.17,66.98v9.82h-1.21c0-3.09-2.51-5.6-5.6-5.6s-5.6,2.51-5.6,5.6h-2.25v-9.82h14.67Z"/></svg>